<svg width="12" height="11" viewBox="0 0 12 11" fill="none" xmlns="http://www.w3.org/2000/svg">
<path d="M6.00173 10.1477L1.25599 5.40199C0.877441 5.02344 0.625074 4.58333 0.49889 4.08168C0.375784 3.58002 0.377323 3.08144 0.503507 2.58594C0.629691 2.08736 0.880519 1.65341 1.25599 1.28409C1.6407 0.905539 2.07926 0.654711 2.57169 0.531605C3.06719 0.405421 3.56115 0.405421 4.05358 0.531605C4.54908 0.657789 4.98918 0.908617 5.37389 1.28409L6.00173 1.89347L6.62957 1.28409C7.01736 0.908617 7.45746 0.657789 7.94989 0.531605C8.44231 0.405421 8.93473 0.405421 9.42716 0.531605C9.92266 0.654711 10.3628 0.905539 10.7475 1.28409C11.1229 1.65341 11.3738 2.08736 11.5 2.58594C11.6261 3.08144 11.6261 3.58002 11.5 4.08168C11.3768 4.58333 11.126 5.02344 10.7475 5.40199L6.00173 10.1477ZM6.00173 8.24112L9.79186 4.44638C9.99498 4.24633 10.1304 4.01243 10.1981 3.74467C10.2658 3.47384 10.2658 3.20455 10.1981 2.93679C10.1335 2.66903 10.0011 2.43821 9.80109 2.24432C9.59489 2.03812 9.35791 1.90116 9.09015 1.83345C8.82548 1.76574 8.55926 1.76728 8.2915 1.83807C8.02375 1.90578 7.78215 2.04427 7.56672 2.25355L6.00173 3.77237L4.43675 2.25355C4.22439 2.04427 3.98279 1.90578 3.71196 1.83807C3.4442 1.76728 3.17799 1.76574 2.91331 1.83345C2.64863 1.90116 2.41165 2.03812 2.20237 2.24432C2.00232 2.43821 1.86845 2.66903 1.80074 2.93679C1.73611 3.20455 1.73765 3.47384 1.80535 3.74467C1.87614 4.01243 2.01156 4.24633 2.2116 4.44638L6.00173 8.24112Z" fill="#FF1C1C"/>
</svg>
