<svg width="17" height="16" viewBox="0 0 17 16" fill="none" xmlns="http://www.w3.org/2000/svg">
<path d="M5.06275 0.875C2.69809 0.875 0.781128 2.66861 0.781128 4.88039C0.781128 6.77253 1.92372 8.72395 4.36698 11.7648C6.71417 14.6856 7.27848 15.1766 8.36156 15.296C8.43418 15.304 8.54353 15.3064 8.62385 15.296C9.6976 15.1662 10.287 14.6599 12.6091 11.7648C15.0484 8.72315 16.195 6.76532 16.195 4.88039C16.195 2.66861 14.278 0.875 11.9133 0.875C10.4661 0.875 9.19776 1.57114 8.48616 2.47555C7.78192 1.57114 6.50993 0.875 5.06275 0.875ZM5.06275 2.47715C6.4815 2.47715 7.63172 3.553 7.63172 4.88039C7.63172 5.94822 9.34437 5.94822 9.34437 4.88039C9.34437 3.553 10.4945 2.47715 11.9133 2.47715C13.3321 2.47715 14.4823 3.553 14.4823 4.88039C14.4823 6.27826 13.4201 8.06707 11.2176 10.8132C9.37613 13.1091 8.86088 13.6506 8.51476 13.6922C8.50757 13.693 8.46749 13.693 8.46132 13.6922C8.11931 13.6546 7.61159 13.1195 5.75851 10.8132C3.55185 8.06707 2.49378 6.28547 2.49378 4.88039C2.49378 3.553 3.6439 2.47715 5.06275 2.47715Z" fill="#FF254C"/>
<path d="M2.86577 3.94492C3.98241 3.74708 5.15828 3.08598 6.31955 3.40032C6.67296 3.49598 6.29814 3.79669 6.10369 3.84406C5.46065 4.00072 4.8283 4.28102 4.20233 4.4924C3.76859 4.63887 3.27213 4.7352 2.86873 4.95632C2.46825 5.17584 3.20664 5.08599 3.35663 5.08599C4.81761 5.08599 6.12847 4.59063 7.54967 4.38867C7.61544 4.37932 8.2501 4.30459 8.0287 4.42324C7.34402 4.7902 6.70281 5.19176 5.9588 5.45482C5.13305 5.74677 4.24954 5.90164 3.4483 6.25299C3.33398 6.30312 3.08625 6.33799 3.3448 6.33079C3.65988 6.32202 3.9901 6.13478 4.29696 6.07146C5.2878 5.86699 6.30898 5.76591 7.28353 5.49228C8.12844 5.25505 8.67154 4.85321 9.3357 4.33104C9.73996 4.0132 10.1411 3.85948 10.4771 3.46659C10.7852 3.10635 11.3536 3.56092 11.7309 3.62219C12.1822 3.69549 12.63 3.66224 13.0852 3.68558C13.3641 3.69989 13.515 4.22741 13.5642 4.41172C13.7956 5.27795 13.514 6.25805 13.0083 6.98777C12.7604 7.34551 12.5318 7.69993 12.1803 7.96748C11.8196 8.24212 11.6409 8.53478 11.4588 8.94142C11.2133 9.4897 10.9794 10.0414 10.7787 10.6069C10.679 10.888 10.6076 11.2008 10.4505 11.4598C10.3503 11.6251 10.1675 11.7609 10.0158 11.8805C9.50804 12.2811 9.07277 12.6067 8.40128 12.6067C7.85085 12.6067 7.46625 11.8492 7.15047 11.5117C6.70243 11.0329 6.39398 10.3934 6.04751 9.84621C5.63906 9.20114 5.15738 8.62844 4.72277 8.00494C4.42533 7.57823 4.21417 7.035 3.79427 6.70539C3.63125 6.57742 3.45439 6.47481 3.28862 6.35096C3.23556 6.31132 2.74588 5.8788 2.8776 5.86399C3.31369 5.81496 3.71832 5.76026 4.16389 5.76026C4.75868 5.76026 5.59177 5.67163 6.00019 6.20401C6.51921 6.88054 6.96173 7.62842 7.46096 8.3219C7.77929 8.7641 8.00205 9.25819 8.33623 9.69061C8.47139 9.8655 8.58057 10.0738 8.77387 10.1949C8.84698 10.2407 8.96517 10.3786 8.98381 10.215C9.02876 9.82086 8.62058 9.33411 8.45451 9.00481C8.0765 8.25525 7.73362 7.43651 7.45208 6.64776C7.33974 6.33301 7.38463 5.9339 7.60289 5.66805C7.8957 5.31139 8.46174 5.06818 8.86258 4.84971C9.34951 4.5843 9.9448 4.24656 10.5067 4.16391C10.7247 4.13184 10.69 4.51681 10.69 4.648C10.69 5.55563 10.1523 6.38962 9.74968 7.17795C9.63835 7.39593 9.17609 8.00087 9.25586 8.27292C9.26144 8.29194 9.5097 7.88613 9.54269 7.82917C10.0082 7.02534 10.6026 6.29864 11.1543 5.54991C11.3272 5.31513 11.5596 5.12727 11.7309 4.89005C11.7786 4.82391 11.5407 5.07046 11.4588 5.11192C10.8005 5.4455 10.1351 5.76484 9.47763 6.10027C9.39884 6.14047 8.25734 6.82825 8.18838 6.69386" stroke="#FF254C" stroke-width="3" stroke-linecap="round"/>
</svg>
