<svg width="18" height="18" viewBox="0 0 18 18" fill="none" xmlns="http://www.w3.org/2000/svg">
<path fill-rule="evenodd" clip-rule="evenodd" d="M15.1415 8.16981C15.1415 11.9044 11.9941 14.9319 8.11154 14.9319C4.22898 14.9319 1.08154 11.9044 1.08154 8.16981C1.08154 4.43523 4.22898 1.40775 8.11154 1.40775C11.9941 1.40775 15.1415 4.43523 15.1415 8.16981ZM13.2811 14.1827C11.8775 15.3004 10.0761 15.9722 8.11154 15.9722C3.63166 15.9722 0 12.4789 0 8.16981C0 3.86068 3.63166 0.367432 8.11154 0.367432C12.5914 0.367432 16.2231 3.86068 16.2231 8.16981C16.2231 10.2148 15.4052 12.076 14.0669 13.4673L17.6327 16.8971L16.8679 17.6327L13.2811 14.1827Z" fill="black"/>
<path fill-rule="evenodd" clip-rule="evenodd" d="M0 8.11661C0 3.63045 3.69997 0 8.25627 0C12.8126 0 16.5125 3.63045 16.5125 8.11661C16.5125 10.1721 15.7351 12.0491 14.4546 13.4785L18 16.9624L16.944 18L13.3707 14.4888C11.9642 15.5813 10.1872 16.2332 8.25627 16.2332C3.69997 16.2332 0 12.6028 0 8.11661ZM8.25627 0.416658C3.92299 0.416658 0.416537 3.86752 0.416537 8.11661C0.416537 12.3657 3.92299 15.8166 8.25627 15.8166C10.1562 15.8166 11.8974 15.153 13.2539 14.0494L13.3984 13.9319L16.944 17.4159L17.4056 16.9624L13.8736 13.4916L14.0134 13.3431C15.3066 11.9697 16.096 10.1337 16.096 8.11661C16.096 3.86752 12.5896 0.416658 8.25627 0.416658ZM1.07307 8.11661C1.07307 4.2128 4.29261 1.05444 8.25627 1.05444C12.2199 1.05444 15.4395 4.2128 15.4395 8.11661C15.4395 12.0204 12.2199 15.1788 8.25627 15.1788C4.29261 15.1788 1.07307 12.0204 1.07307 8.11661ZM8.25627 1.47109C4.51563 1.47109 1.4896 4.44987 1.4896 8.11661C1.4896 11.7833 4.51563 14.7621 8.25627 14.7621C11.9969 14.7621 15.0229 11.7833 15.0229 8.11661C15.0229 4.44987 11.9969 1.47109 8.25627 1.47109Z" fill="black"/>
</svg>
