<svg width="91" height="27" viewBox="0 0 91 27" fill="none" xmlns="http://www.w3.org/2000/svg">
<path d="M87.9008 20.4011L88.3781 20.5503L88.5273 20.0731L89.2321 17.8188C89.9478 15.5301 89.765 13.4155 88.6464 11.5187C87.5381 9.6392 85.8262 8.34783 83.5515 7.63661C81.2602 6.92017 79.045 7.0875 76.9347 8.14314C74.8071 9.20747 73.3591 11.005 72.5839 13.4841C71.7933 16.0125 71.9326 18.3373 73.0472 20.4185C74.1545 22.486 75.8973 23.8885 78.2409 24.6213C81.0544 25.501 83.657 25.3061 86.0091 24.0005L86.4464 23.7578L86.2035 23.3206L85.06 21.2623L84.8828 20.9433L84.5249 21.0148C82.959 21.328 81.538 21.4882 79.6773 20.9065C78.5195 20.5444 77.6208 19.9127 76.9595 19.0128C76.4308 18.2933 76.2043 17.5497 76.2641 16.7626L87.9008 20.4011ZM84.8853 13.2233L84.8852 13.2233L84.8897 13.2308C85.3143 13.9444 85.4462 14.7521 85.2525 15.684L77.325 13.2053C77.6898 12.4046 78.291 11.8424 79.1443 11.498C80.215 11.0859 81.3145 11.0553 82.4621 11.4141C83.6168 11.7751 84.4058 12.3847 84.8853 13.2233Z" fill="#42A8F8" stroke="#42A8F8"/>
<path d="M68.73 24.7251H69.23V24.2251V1.5249V1.0249H68.73H65.3184H64.8184V1.5249V24.2251V24.7251H65.3184H68.73Z" fill="#42A8F8" stroke="#42A8F8"/>
<path d="M50.9143 24.7251H51.4143V24.2251V19.796L53.3321 17.8781L57.8041 24.5048L57.9528 24.7251H58.2186H62.4175H63.3587L62.8318 23.9452L56.4096 14.4387L62.2972 8.30056L63.1088 7.45445H61.9364H57.5188H57.305L57.1573 7.60899L51.4143 13.6183V1.5249V1.0249H50.9143H47.5027H47.0027V1.5249V24.2251V24.7251H47.5027H50.9143Z" fill="#42A8F8" stroke="#42A8F8"/>
<path d="M44.1922 10.5427L44.4744 10.193L44.1566 9.87517C42.3691 8.08768 40.1706 7.19189 37.5922 7.19189C34.9973 7.19189 32.7878 8.02047 30.9969 9.68782C29.1974 11.3632 28.3008 13.5109 28.3008 16.0897C28.3008 18.6872 29.1463 20.8474 30.8561 22.5261L30.8561 22.5261L30.8594 22.5293C32.5611 24.1692 34.6558 24.9874 37.1111 24.9874C39.7687 24.9874 42.1781 23.9159 44.3265 21.8281L44.6754 21.489L44.346 21.131L42.334 18.944L41.9811 18.5604L41.6125 18.929C40.3084 20.2331 38.9854 20.8383 37.6359 20.8383C36.2471 20.8383 35.0923 20.3769 34.1406 19.4538C33.2175 18.5021 32.7561 17.3473 32.7561 15.9585C32.7561 14.5999 33.2158 13.5278 34.1243 12.6972L34.1248 12.6967C35.0799 11.8212 36.2123 11.3848 37.5485 11.3848C38.8234 11.3848 40.1253 11.9286 41.4618 13.0981L41.8534 13.4407L42.1802 13.0358L44.1922 10.5427Z" fill="#42A8F8" stroke="#42A8F8"/>
<path d="M24.8951 24.7251H25.3951V24.2251V7.95441V7.45441H24.8951H21.4835H20.9835V7.95441V24.2251V24.7251H21.4835H24.8951ZM21.3049 1.30252C20.8019 1.80558 20.5461 2.42891 20.5461 3.14318C20.5461 3.88462 20.8155 4.52427 21.3485 5.02776C21.852 5.56079 22.4916 5.8301 23.2331 5.8301C23.9473 5.8301 24.5707 5.57438 25.0737 5.07132C25.6038 4.54124 25.8762 3.88964 25.8762 3.14318C25.8762 2.4231 25.6014 1.80041 25.0739 1.30235C24.5758 0.774822 23.9532 0.5 23.2331 0.5C22.4866 0.5 21.835 0.772441 21.3049 1.30252Z" fill="#42A8F8" stroke="#42A8F8"/>
<path d="M15.6995 16.5263L15.6995 16.5263L15.7041 16.5226C17.3728 15.1748 18.1643 13.1133 18.1643 10.4476C18.1643 7.75726 17.3754 5.68117 15.7082 4.33226C14.0884 2.96893 11.5998 2.33716 8.34805 2.33716H1H0.5V2.83716V24.2252V24.7252H1H4.63029H5.13029V24.2252V18.4269H8.39179C11.5878 18.4269 14.0546 17.8232 15.6995 16.5263ZM12.4697 13.2299L12.4696 13.2299L12.4628 13.2364C11.8497 13.8259 10.6773 14.1903 8.78544 14.1903H5.13029V6.61754H8.26058C10.2451 6.61754 11.5774 6.92393 12.354 7.45001C13.0765 7.93948 13.4903 8.78797 13.4903 10.1415C13.4903 11.6425 13.1149 12.6325 12.4697 13.2299Z" fill="#42A8F8" stroke="#42A8F8"/>
</svg>
