<svg width="91" height="27" viewBox="0 0 91 27" fill="none" xmlns="http://www.w3.org/2000/svg">
<path d="M87.9008 20.4012L88.3781 20.5504L88.5273 20.0732L89.2321 17.819C89.9478 15.5302 89.765 13.4157 88.6464 11.5189C87.5381 9.63932 85.8262 8.34795 83.5515 7.63674C81.2602 6.92029 79.045 7.08762 76.9347 8.14326C74.8071 9.20759 73.3591 11.0051 72.5839 13.4842C71.7933 16.0126 71.9326 18.3374 73.0472 20.4187C74.1545 22.4862 75.8973 23.8886 78.2409 24.6214C81.0544 25.5011 83.657 25.3062 86.0091 24.0007L86.4464 23.7579L86.2035 23.3207L85.06 21.2624L84.8828 20.9434L84.5249 21.015C82.959 21.3281 81.538 21.4884 79.6773 20.9066C78.5195 20.5446 77.6208 19.9128 76.9595 19.0129C76.4308 18.2934 76.2043 17.5498 76.2641 16.7627L87.9008 20.4012ZM84.8853 13.2234L84.8852 13.2234L84.8897 13.2309C85.3143 13.9445 85.4462 14.7522 85.2525 15.6842L77.325 13.2054C77.6898 12.4047 78.291 11.8425 79.1443 11.4981C80.215 11.086 81.3145 11.0554 82.4621 11.4142C83.6168 11.7753 84.4058 12.3848 84.8853 13.2234Z" fill="white" stroke="white"/>
<path d="M68.73 24.7251H69.23V24.2251V1.5249V1.0249H68.73H65.3184H64.8184V1.5249V24.2251V24.7251H65.3184H68.73Z" fill="white" stroke="white"/>
<path d="M50.9143 24.7251H51.4143V24.2251V19.796L53.3321 17.8781L57.8041 24.5048L57.9528 24.7251H58.2186H62.4175H63.3587L62.8318 23.9452L56.4096 14.4387L62.2972 8.30056L63.1088 7.45445H61.9364H57.5188H57.305L57.1573 7.60899L51.4143 13.6183V1.5249V1.0249H50.9143H47.5027H47.0027V1.5249V24.2251V24.7251H47.5027H50.9143Z" fill="white" stroke="white"/>
<path d="M44.1922 10.5429L44.4744 10.1931L44.1566 9.87529C42.3691 8.0878 40.1706 7.19202 37.5922 7.19202C34.9973 7.19202 32.7878 8.0206 30.9969 9.68794C29.1974 11.3633 28.3008 13.511 28.3008 16.0898C28.3008 18.6873 29.1463 20.8475 30.8561 22.5262L30.8561 22.5262L30.8594 22.5295C32.5611 24.1693 34.6558 24.9876 37.1111 24.9876C39.7687 24.9876 42.1781 23.916 44.3265 21.8282L44.6754 21.4891L44.346 21.1311L42.334 18.9442L41.9811 18.5606L41.6125 18.9291C40.3084 20.2332 38.9854 20.8384 37.6359 20.8384C36.2471 20.8384 35.0923 20.377 34.1406 19.454C33.2175 18.5022 32.7561 17.3474 32.7561 15.9586C32.7561 14.6 33.2158 13.5279 34.1243 12.6973L34.1248 12.6969C35.0799 11.8214 36.2123 11.3849 37.5485 11.3849C38.8234 11.3849 40.1253 11.9287 41.4618 13.0982L41.8534 13.4409L42.1802 13.0359L44.1922 10.5429Z" fill="white" stroke="white"/>
<path d="M24.8951 24.7251H25.3951V24.2251V7.95441V7.45441H24.8951H21.4835H20.9835V7.95441V24.2251V24.7251H21.4835H24.8951ZM21.3049 1.30252C20.8019 1.80558 20.5461 2.42891 20.5461 3.14318C20.5461 3.88462 20.8155 4.52427 21.3485 5.02776C21.852 5.56079 22.4916 5.8301 23.2331 5.8301C23.9473 5.8301 24.5707 5.57438 25.0737 5.07132C25.6038 4.54124 25.8762 3.88964 25.8762 3.14318C25.8762 2.4231 25.6014 1.80041 25.0739 1.30235C24.5758 0.774822 23.9532 0.5 23.2331 0.5C22.4866 0.5 21.835 0.772441 21.3049 1.30252Z" fill="white" stroke="white"/>
<path d="M15.6995 16.5261L15.6995 16.5262L15.7041 16.5225C17.3728 15.1747 18.1643 13.1132 18.1643 10.4475C18.1643 7.75713 17.3754 5.68105 15.7082 4.33213C14.0884 2.96881 11.5998 2.33704 8.34805 2.33704H1H0.5V2.83704V24.2251V24.7251H1H4.63029H5.13029V24.2251V18.4268H8.39179C11.5878 18.4268 14.0546 17.8231 15.6995 16.5261ZM12.4697 13.2298L12.4696 13.2297L12.4628 13.2363C11.8497 13.8258 10.6773 14.1901 8.78544 14.1901H5.13029V6.61742H8.26058C10.2451 6.61742 11.5774 6.92381 12.354 7.44989C13.0765 7.93936 13.4903 8.78785 13.4903 10.1414C13.4903 11.6424 13.1149 12.6324 12.4697 13.2298Z" fill="white" stroke="white"/>
</svg>
